<mxfile host="app.diagrams.net" agent="Mozilla/5.0 (Windows NT 10.0; Win64; x64) AppleWebKit/537.36 (KHTML, like Gecko) Chrome/134.0.0.0 Safari/537.36" version="26.1.1">
  <diagram id="C5RBs43oDa-KdzZeNtuy" name="Page-1">
    <mxGraphModel dx="836" dy="434" grid="1" gridSize="10" guides="1" tooltips="1" connect="1" arrows="1" fold="1" page="1" pageScale="1" pageWidth="827" pageHeight="1169" math="0" shadow="0">
      <root>
        <mxCell id="WIyWlLk6GJQsqaUBKTNV-0" />
        <mxCell id="WIyWlLk6GJQsqaUBKTNV-1" parent="WIyWlLk6GJQsqaUBKTNV-0" />
        <mxCell id="r_Rx1pWE-mSmS_Qlkel_-1" value="&lt;p class=&quot;MsoNormal&quot;&gt;&lt;b&gt;&lt;font style=&quot;font-size: 13px;&quot;&gt;Registrierungsprozess&lt;/font&gt;&lt;/b&gt;&lt;/p&gt;" style="text;html=1;align=center;verticalAlign=middle;resizable=0;points=[];autosize=1;strokeColor=none;fillColor=none;labelBackgroundColor=none;fontColor=#1D3557;" vertex="1" parent="WIyWlLk6GJQsqaUBKTNV-1">
          <mxGeometry x="75" y="20" width="160" height="50" as="geometry" />
        </mxCell>
        <mxCell id="r_Rx1pWE-mSmS_Qlkel_-9" style="edgeStyle=none;rounded=0;orthogonalLoop=1;jettySize=auto;html=1;exitX=1;exitY=1;exitDx=0;exitDy=0;labelBackgroundColor=none;strokeColor=#457B9D;fontColor=default;" edge="1" parent="WIyWlLk6GJQsqaUBKTNV-1">
          <mxGeometry relative="1" as="geometry">
            <mxPoint x="220" y="460" as="sourcePoint" />
            <mxPoint x="220" y="460" as="targetPoint" />
          </mxGeometry>
        </mxCell>
        <mxCell id="r_Rx1pWE-mSmS_Qlkel_-72" style="edgeStyle=none;shape=flexArrow;rounded=0;orthogonalLoop=1;jettySize=auto;html=1;exitX=0.5;exitY=1;exitDx=0;exitDy=0;strokeColor=#457B9D;fontColor=default;fillColor=#A8DADC;labelBackgroundColor=none;" edge="1" parent="WIyWlLk6GJQsqaUBKTNV-1" source="r_Rx1pWE-mSmS_Qlkel_-12">
          <mxGeometry relative="1" as="geometry">
            <mxPoint x="434.52631578947376" y="150" as="targetPoint" />
          </mxGeometry>
        </mxCell>
        <mxCell id="r_Rx1pWE-mSmS_Qlkel_-12" value="&lt;span style=&quot;line-height: 115%; font-family: Aptos, sans-serif;&quot;&gt;&lt;font&gt;&lt;span style=&quot;line-height: 115%;&quot;&gt;&lt;font style=&quot;&quot;&gt;Trainer&lt;br&gt;gibt&amp;nbsp; &lt;/font&gt;&lt;/span&gt;&lt;span style=&quot;line-height: 115%;&quot;&gt;&amp;nbsp;&lt;/span&gt;&lt;span style=&quot;line-height: 115%;&quot;&gt;&lt;font style=&quot;&quot;&gt;E-Mail&lt;br&gt;&amp;amp; PW&lt;/font&gt;&amp;nbsp; &amp;nbsp;&lt;/span&gt;&amp;nbsp;&lt;/font&gt;&lt;/span&gt;" style="rounded=1;whiteSpace=wrap;html=1;fontSize=12;glass=0;strokeWidth=1;shadow=0;perimeterSpacing=0;labelBackgroundColor=none;fillColor=#A8DADC;strokeColor=#457B9D;fontColor=#1D3557;" vertex="1" parent="WIyWlLk6GJQsqaUBKTNV-1">
          <mxGeometry x="375" y="70" width="120" height="50" as="geometry" />
        </mxCell>
        <mxCell id="r_Rx1pWE-mSmS_Qlkel_-17" value="&lt;p class=&quot;MsoNormal&quot;&gt;&lt;b&gt;&lt;span style=&quot;line-height: 115%;&quot;&gt;&lt;font style=&quot;font-size: 13px;&quot;&gt;Login-Prozess&lt;/font&gt;&lt;/span&gt;&lt;/b&gt;&lt;/p&gt;" style="text;html=1;align=center;verticalAlign=middle;resizable=0;points=[];autosize=1;strokeColor=none;fillColor=none;labelBackgroundColor=none;fontColor=#1D3557;" vertex="1" parent="WIyWlLk6GJQsqaUBKTNV-1">
          <mxGeometry x="380" y="25" width="110" height="50" as="geometry" />
        </mxCell>
        <mxCell id="r_Rx1pWE-mSmS_Qlkel_-18" value="&lt;span style=&quot;line-height: 115%; font-family: Aptos, sans-serif;&quot;&gt;&lt;font style=&quot;font-size: 11px;&quot;&gt;JWT&lt;br&gt;erzeugen &amp;amp;&lt;/font&gt;&lt;/span&gt;&lt;span style=&quot;font-size:11.0pt;line-height:115%;&amp;lt;br/&amp;gt;font-family:&amp;quot;Aptos&amp;quot;,sans-serif;mso-ascii-theme-font:minor-latin;mso-fareast-font-family:&amp;lt;br/&amp;gt;Aptos;mso-fareast-theme-font:minor-latin;mso-hansi-theme-font:minor-latin;&amp;lt;br/&amp;gt;mso-bidi-font-family:&amp;quot;Times New Roman&amp;quot;;mso-bidi-theme-font:minor-bidi;&amp;lt;br/&amp;gt;mso-ansi-language:EN-US;mso-fareast-language:EN-US;mso-bidi-language:AR-SA&quot;&gt;&amp;nbsp;&lt;/span&gt;&lt;span style=&quot;line-height: 115%; font-family: Aptos, sans-serif;&quot;&gt;&lt;font style=&quot;font-size: 11px;&quot;&gt;im&lt;br&gt;Cookie speichern&amp;nbsp;&amp;nbsp;&lt;/font&gt;&lt;/span&gt;&lt;span style=&quot;font-size:11.0pt;line-height:115%;&amp;lt;br/&amp;gt;font-family:&amp;quot;Aptos&amp;quot;,sans-serif;mso-ascii-theme-font:minor-latin;mso-fareast-font-family:&amp;lt;br/&amp;gt;Aptos;mso-fareast-theme-font:minor-latin;mso-hansi-theme-font:minor-latin;&amp;lt;br/&amp;gt;mso-bidi-font-family:&amp;quot;Times New Roman&amp;quot;;mso-bidi-theme-font:minor-bidi;&amp;lt;br/&amp;gt;mso-ansi-language:EN-US;mso-fareast-language:EN-US;mso-bidi-language:AR-SA&quot;&gt; &amp;nbsp;&lt;/span&gt;" style="rounded=1;whiteSpace=wrap;html=1;labelBackgroundColor=none;fillColor=#A8DADC;strokeColor=#457B9D;fontColor=#1D3557;" vertex="1" parent="WIyWlLk6GJQsqaUBKTNV-1">
          <mxGeometry x="310" y="293" width="120" height="50" as="geometry" />
        </mxCell>
        <mxCell id="r_Rx1pWE-mSmS_Qlkel_-19" style="edgeStyle=none;rounded=0;orthogonalLoop=1;jettySize=auto;html=1;exitX=1;exitY=1;exitDx=0;exitDy=0;labelBackgroundColor=none;strokeColor=#457B9D;fontColor=default;" edge="1" parent="WIyWlLk6GJQsqaUBKTNV-1" source="r_Rx1pWE-mSmS_Qlkel_-18" target="r_Rx1pWE-mSmS_Qlkel_-18">
          <mxGeometry relative="1" as="geometry" />
        </mxCell>
        <mxCell id="r_Rx1pWE-mSmS_Qlkel_-68" style="edgeStyle=none;shape=flexArrow;rounded=0;orthogonalLoop=1;jettySize=auto;html=1;exitX=0.5;exitY=1;exitDx=0;exitDy=0;strokeColor=#457B9D;fontColor=default;fillColor=#A8DADC;labelBackgroundColor=none;" edge="1" parent="WIyWlLk6GJQsqaUBKTNV-1" source="r_Rx1pWE-mSmS_Qlkel_-21">
          <mxGeometry relative="1" as="geometry">
            <mxPoint x="159.78947368421052" y="170" as="targetPoint" />
          </mxGeometry>
        </mxCell>
        <mxCell id="r_Rx1pWE-mSmS_Qlkel_-21" value="&lt;span style=&quot;line-height: 115%; font-family: Aptos, sans-serif;&quot;&gt;&lt;font&gt;&lt;span style=&quot;line-height: 115%;&quot;&gt;&lt;font style=&quot;&quot;&gt;Trainer&lt;br&gt;gibt&amp;nbsp; &lt;/font&gt;&lt;/span&gt;&lt;span style=&quot;line-height: 115%;&quot;&gt;&amp;nbsp;&lt;/span&gt;&lt;span style=&quot;line-height: 115%;&quot;&gt;&lt;font style=&quot;&quot;&gt;E-Mail&lt;br&gt;&amp;amp; PW&lt;/font&gt;&amp;nbsp; &amp;nbsp;&lt;/span&gt;&amp;nbsp;&lt;/font&gt;&lt;/span&gt;" style="rounded=1;whiteSpace=wrap;html=1;fontSize=12;glass=0;strokeWidth=1;shadow=0;perimeterSpacing=0;labelBackgroundColor=none;fillColor=#A8DADC;strokeColor=#457B9D;fontColor=#1D3557;" vertex="1" parent="WIyWlLk6GJQsqaUBKTNV-1">
          <mxGeometry x="100" y="70" width="120" height="50" as="geometry" />
        </mxCell>
        <mxCell id="r_Rx1pWE-mSmS_Qlkel_-25" style="edgeStyle=none;rounded=0;orthogonalLoop=1;jettySize=auto;html=1;exitX=0.75;exitY=1;exitDx=0;exitDy=0;labelBackgroundColor=none;strokeColor=#457B9D;fontColor=default;" edge="1" parent="WIyWlLk6GJQsqaUBKTNV-1" source="r_Rx1pWE-mSmS_Qlkel_-12" target="r_Rx1pWE-mSmS_Qlkel_-12">
          <mxGeometry relative="1" as="geometry" />
        </mxCell>
        <mxCell id="r_Rx1pWE-mSmS_Qlkel_-90" style="edgeStyle=orthogonalEdgeStyle;shape=flexArrow;curved=1;rounded=0;orthogonalLoop=1;jettySize=auto;html=1;exitX=0.25;exitY=1;exitDx=0;exitDy=0;entryX=0.5;entryY=0;entryDx=0;entryDy=0;strokeColor=#457B9D;fontColor=default;fillColor=#A8DADC;labelBackgroundColor=none;" edge="1" parent="WIyWlLk6GJQsqaUBKTNV-1" source="r_Rx1pWE-mSmS_Qlkel_-26" target="r_Rx1pWE-mSmS_Qlkel_-18">
          <mxGeometry relative="1" as="geometry" />
        </mxCell>
        <mxCell id="r_Rx1pWE-mSmS_Qlkel_-26" value="&lt;span style=&quot;line-height: 115%; font-family: Aptos, sans-serif;&quot;&gt;&lt;font style=&quot;font-size: 11px;&quot;&gt;Überprüfung&lt;/font&gt;&lt;/span&gt;&lt;div&gt;&lt;span style=&quot;line-height: 115%;&quot;&gt;&lt;font style=&quot;font-size: 11px;&quot;&gt;des Hashes&lt;/font&gt;&lt;/span&gt;&lt;span style=&quot;font-size:11.0pt;line-height:115%;&amp;lt;br/&amp;gt;font-family:&amp;quot;Aptos&amp;quot;,sans-serif;mso-ascii-theme-font:minor-latin;mso-fareast-font-family:&amp;lt;br/&amp;gt;Aptos;mso-fareast-theme-font:minor-latin;mso-hansi-theme-font:minor-latin;&amp;lt;br/&amp;gt;mso-bidi-font-family:&amp;quot;Times New Roman&amp;quot;;mso-bidi-theme-font:minor-bidi;&amp;lt;br/&amp;gt;mso-ansi-language:EN-US;mso-fareast-language:EN-US;mso-bidi-language:AR-SA&quot;&gt;&amp;nbsp;&lt;/span&gt;&lt;/div&gt;" style="whiteSpace=wrap;html=1;aspect=fixed;labelBackgroundColor=none;fillColor=#A8DADC;strokeColor=#457B9D;fontColor=#1D3557;" vertex="1" parent="WIyWlLk6GJQsqaUBKTNV-1">
          <mxGeometry x="385" y="150" width="85" height="85" as="geometry" />
        </mxCell>
        <mxCell id="r_Rx1pWE-mSmS_Qlkel_-39" style="edgeStyle=none;rounded=0;orthogonalLoop=1;jettySize=auto;html=1;exitX=1;exitY=1;exitDx=0;exitDy=0;labelBackgroundColor=none;strokeColor=#457B9D;fontColor=default;" edge="1" parent="WIyWlLk6GJQsqaUBKTNV-1">
          <mxGeometry relative="1" as="geometry">
            <mxPoint x="710.0000000000002" y="460" as="sourcePoint" />
            <mxPoint x="710.0000000000002" y="460" as="targetPoint" />
          </mxGeometry>
        </mxCell>
        <mxCell id="r_Rx1pWE-mSmS_Qlkel_-86" style="edgeStyle=orthogonalEdgeStyle;shape=flexArrow;curved=1;rounded=0;orthogonalLoop=1;jettySize=auto;html=1;exitX=0;exitY=0.75;exitDx=0;exitDy=0;strokeColor=#457B9D;fontColor=default;fillColor=#A8DADC;labelBackgroundColor=none;" edge="1" parent="WIyWlLk6GJQsqaUBKTNV-1" source="r_Rx1pWE-mSmS_Qlkel_-40" target="r_Rx1pWE-mSmS_Qlkel_-84">
          <mxGeometry relative="1" as="geometry" />
        </mxCell>
        <mxCell id="r_Rx1pWE-mSmS_Qlkel_-40" value="&lt;span style=&quot;line-height: 115%; font-family: Aptos, sans-serif;&quot;&gt;&lt;font style=&quot;font-size: 11px;&quot;&gt;Trainer&lt;br/&gt;fügt&amp;nbsp;&amp;nbsp;&lt;span style=&quot;line-height: 115%;&quot;&gt;Student&lt;br/&gt;hinzu&amp;nbsp;&lt;/span&gt;&lt;/font&gt;&lt;span style=&quot;font-size: 11pt; line-height: 115%;&quot;&gt;&amp;nbsp;&lt;/span&gt;&lt;span style=&quot;font-size: 11pt;&quot;&gt;&amp;nbsp;&lt;/span&gt;&lt;/span&gt;" style="rounded=1;whiteSpace=wrap;html=1;fontSize=12;glass=0;strokeWidth=1;shadow=0;perimeterSpacing=0;labelBackgroundColor=none;fillColor=#A8DADC;strokeColor=#457B9D;fontColor=#1D3557;" vertex="1" parent="WIyWlLk6GJQsqaUBKTNV-1">
          <mxGeometry x="340" y="480" width="120" height="50" as="geometry" />
        </mxCell>
        <mxCell id="r_Rx1pWE-mSmS_Qlkel_-41" value="&lt;p class=&quot;MsoNormal&quot;&gt;&lt;b&gt;&lt;span style=&quot;font-size:11.0pt;line-height:115%&quot;&gt;Studentenverwaltung&lt;/span&gt;&lt;/b&gt;&lt;/p&gt;" style="text;whiteSpace=wrap;html=1;labelBackgroundColor=none;fontColor=#1D3557;" vertex="1" parent="WIyWlLk6GJQsqaUBKTNV-1">
          <mxGeometry x="324" y="410" width="180" height="60" as="geometry" />
        </mxCell>
        <mxCell id="r_Rx1pWE-mSmS_Qlkel_-42" value="Datenbank&lt;div&gt;Eintrag wird erstellt&lt;/div&gt;" style="whiteSpace=wrap;html=1;aspect=fixed;labelBackgroundColor=none;fillColor=#A8DADC;strokeColor=#457B9D;fontColor=#1D3557;" vertex="1" parent="WIyWlLk6GJQsqaUBKTNV-1">
          <mxGeometry x="360" y="570" width="90" height="90" as="geometry" />
        </mxCell>
        <mxCell id="r_Rx1pWE-mSmS_Qlkel_-88" style="edgeStyle=orthogonalEdgeStyle;shape=flexArrow;curved=1;rounded=0;orthogonalLoop=1;jettySize=auto;html=1;entryX=0;entryY=0.5;entryDx=0;entryDy=0;strokeColor=#457B9D;fontColor=default;fillColor=#A8DADC;labelBackgroundColor=none;" edge="1" parent="WIyWlLk6GJQsqaUBKTNV-1" source="r_Rx1pWE-mSmS_Qlkel_-64" target="r_Rx1pWE-mSmS_Qlkel_-12">
          <mxGeometry relative="1" as="geometry" />
        </mxCell>
        <mxCell id="r_Rx1pWE-mSmS_Qlkel_-64" value="&quot;Sie haben einen Konto erstellt&quot;" style="ellipse;shape=cloud;whiteSpace=wrap;html=1;labelBackgroundColor=none;fillColor=#A8DADC;strokeColor=#457B9D;fontColor=#1D3557;" vertex="1" parent="WIyWlLk6GJQsqaUBKTNV-1">
          <mxGeometry x="90" y="400" width="120" height="80" as="geometry" />
        </mxCell>
        <mxCell id="r_Rx1pWE-mSmS_Qlkel_-65" value="&lt;span style=&quot;font-family: Aptos, sans-serif; font-size: 11px;&quot;&gt;&quot;Bitte erstellen Sie einen Konto&quot;&lt;/span&gt;" style="ellipse;shape=cloud;whiteSpace=wrap;html=1;labelBackgroundColor=none;fillColor=#A8DADC;strokeColor=#457B9D;fontColor=#1D3557;" vertex="1" parent="WIyWlLk6GJQsqaUBKTNV-1">
          <mxGeometry x="440" y="278" width="120" height="80" as="geometry" />
        </mxCell>
        <mxCell id="r_Rx1pWE-mSmS_Qlkel_-67" style="edgeStyle=none;shape=flexArrow;rounded=0;orthogonalLoop=1;jettySize=auto;html=1;exitX=0.5;exitY=1;exitDx=0;exitDy=0;entryX=0.427;entryY=-0.021;entryDx=0;entryDy=0;entryPerimeter=0;strokeColor=#457B9D;fontColor=default;fillColor=#A8DADC;labelBackgroundColor=none;" edge="1" parent="WIyWlLk6GJQsqaUBKTNV-1" source="r_Rx1pWE-mSmS_Qlkel_-40" target="r_Rx1pWE-mSmS_Qlkel_-42">
          <mxGeometry relative="1" as="geometry" />
        </mxCell>
        <mxCell id="r_Rx1pWE-mSmS_Qlkel_-71" style="edgeStyle=none;shape=flexArrow;rounded=0;orthogonalLoop=1;jettySize=auto;html=1;exitX=0.5;exitY=1;exitDx=0;exitDy=0;entryX=0.582;entryY=0.125;entryDx=0;entryDy=0;entryPerimeter=0;strokeColor=#457B9D;fontColor=default;fillColor=#A8DADC;labelBackgroundColor=none;" edge="1" parent="WIyWlLk6GJQsqaUBKTNV-1" target="r_Rx1pWE-mSmS_Qlkel_-64">
          <mxGeometry relative="1" as="geometry">
            <mxPoint x="160" y="370" as="sourcePoint" />
          </mxGeometry>
        </mxCell>
        <mxCell id="r_Rx1pWE-mSmS_Qlkel_-73" style="edgeStyle=none;shape=flexArrow;rounded=0;orthogonalLoop=1;jettySize=auto;html=1;entryX=0.256;entryY=0.167;entryDx=0;entryDy=0;entryPerimeter=0;strokeColor=#457B9D;fontColor=default;fillColor=#A8DADC;labelBackgroundColor=none;" edge="1" parent="WIyWlLk6GJQsqaUBKTNV-1" source="r_Rx1pWE-mSmS_Qlkel_-18" target="r_Rx1pWE-mSmS_Qlkel_-41">
          <mxGeometry relative="1" as="geometry" />
        </mxCell>
        <mxCell id="r_Rx1pWE-mSmS_Qlkel_-79" style="edgeStyle=none;shape=flexArrow;rounded=0;orthogonalLoop=1;jettySize=auto;html=1;entryX=0.5;entryY=0;entryDx=0;entryDy=0;strokeColor=#457B9D;fontColor=default;fillColor=#A8DADC;labelBackgroundColor=none;" edge="1" parent="WIyWlLk6GJQsqaUBKTNV-1" source="r_Rx1pWE-mSmS_Qlkel_-76" target="r_Rx1pWE-mSmS_Qlkel_-78">
          <mxGeometry relative="1" as="geometry" />
        </mxCell>
        <mxCell id="r_Rx1pWE-mSmS_Qlkel_-76" value="&lt;span style=&quot;line-height: 13.8px; font-family: Aptos, sans-serif;&quot;&gt;&lt;font style=&quot;font-size: 11px;&quot;&gt;Hashing&lt;br&gt;des&lt;/font&gt;&lt;/span&gt;&lt;span style=&quot;font-size: 11pt; line-height: 16.8667px;&quot;&gt;&amp;nbsp; &amp;nbsp;&lt;/span&gt;&lt;div&gt;&lt;span style=&quot;font-size: 11pt; line-height: 16.8667px;&quot;&gt;P&lt;/span&gt;&lt;span style=&quot;line-height: 13.8px; font-family: Aptos, sans-serif;&quot;&gt;&lt;font style=&quot;font-size: 11px;&quot;&gt;assworts&amp;nbsp;&lt;/font&gt;&lt;/span&gt;&lt;/div&gt;" style="whiteSpace=wrap;html=1;aspect=fixed;strokeColor=#457B9D;fontColor=#1D3557;fillColor=#A8DADC;labelBackgroundColor=none;" vertex="1" parent="WIyWlLk6GJQsqaUBKTNV-1">
          <mxGeometry x="120" y="170" width="80" height="80" as="geometry" />
        </mxCell>
        <mxCell id="r_Rx1pWE-mSmS_Qlkel_-78" value="&lt;span style=&quot;line-height: 13.8px; font-family: Aptos, sans-serif;&quot;&gt;&lt;font style=&quot;font-size: 11px;&quot;&gt;Speichern&lt;br&gt;in&lt;br&gt;&lt;/font&gt;&lt;/span&gt;&lt;div&gt;&lt;span style=&quot;line-height: 13.8px; font-family: Aptos, sans-serif;&quot;&gt;&lt;span style=&quot;background-color: transparent; color: light-dark(rgb(0, 0, 0), rgb(255, 255, 255));&quot;&gt;&lt;font style=&quot;font-size: 11px;&quot;&gt;Datenbank&lt;/font&gt;&lt;/span&gt;&lt;/span&gt;&lt;/div&gt;" style="whiteSpace=wrap;html=1;aspect=fixed;strokeColor=#457B9D;fontColor=#1D3557;fillColor=#A8DADC;labelBackgroundColor=none;" vertex="1" parent="WIyWlLk6GJQsqaUBKTNV-1">
          <mxGeometry x="120" y="290" width="80" height="80" as="geometry" />
        </mxCell>
        <mxCell id="r_Rx1pWE-mSmS_Qlkel_-83" style="edgeStyle=none;shape=flexArrow;rounded=0;orthogonalLoop=1;jettySize=auto;html=1;exitX=0.25;exitY=0;exitDx=0;exitDy=0;strokeColor=#457B9D;fontColor=default;fillColor=#A8DADC;labelBackgroundColor=none;" edge="1" parent="WIyWlLk6GJQsqaUBKTNV-1">
          <mxGeometry relative="1" as="geometry">
            <mxPoint x="545" y="640" as="sourcePoint" />
            <mxPoint x="545" y="640" as="targetPoint" />
          </mxGeometry>
        </mxCell>
        <mxCell id="r_Rx1pWE-mSmS_Qlkel_-84" value="&lt;p class=&quot;MsoNormal&quot;&gt;&lt;b&gt;&lt;span style=&quot;font-size:11.0pt;line-height:115%&quot;&gt;Terminplanung&lt;/span&gt;&lt;/b&gt;&lt;/p&gt;" style="text;html=1;align=center;verticalAlign=middle;resizable=0;points=[];autosize=1;strokeColor=none;fillColor=none;fontColor=#1D3557;labelBackgroundColor=none;" vertex="1" parent="WIyWlLk6GJQsqaUBKTNV-1">
          <mxGeometry x="95" y="585" width="130" height="50" as="geometry" />
        </mxCell>
        <mxCell id="r_Rx1pWE-mSmS_Qlkel_-93" style="edgeStyle=orthogonalEdgeStyle;shape=flexArrow;curved=1;rounded=0;orthogonalLoop=1;jettySize=auto;html=1;exitX=0.75;exitY=1;exitDx=0;exitDy=0;entryX=0.4;entryY=0.1;entryDx=0;entryDy=0;entryPerimeter=0;strokeColor=#457B9D;fontColor=default;fillColor=#A8DADC;labelBackgroundColor=none;" edge="1" parent="WIyWlLk6GJQsqaUBKTNV-1" source="r_Rx1pWE-mSmS_Qlkel_-26" target="r_Rx1pWE-mSmS_Qlkel_-65">
          <mxGeometry relative="1" as="geometry" />
        </mxCell>
        <mxCell id="r_Rx1pWE-mSmS_Qlkel_-94" value="&lt;b&gt;yes&lt;/b&gt;" style="text;html=1;align=center;verticalAlign=middle;resizable=0;points=[];autosize=1;strokeColor=none;fillColor=none;fontColor=#1D3557;labelBackgroundColor=none;" vertex="1" parent="WIyWlLk6GJQsqaUBKTNV-1">
          <mxGeometry x="360" y="228" width="40" height="30" as="geometry" />
        </mxCell>
        <mxCell id="r_Rx1pWE-mSmS_Qlkel_-95" value="&lt;b&gt;no&lt;/b&gt;" style="text;html=1;align=center;verticalAlign=middle;resizable=0;points=[];autosize=1;strokeColor=none;fillColor=none;fontColor=#1D3557;labelBackgroundColor=none;" vertex="1" parent="WIyWlLk6GJQsqaUBKTNV-1">
          <mxGeometry x="450" y="228" width="40" height="30" as="geometry" />
        </mxCell>
        <mxCell id="r_Rx1pWE-mSmS_Qlkel_-101" style="edgeStyle=none;shape=flexArrow;rounded=0;orthogonalLoop=1;jettySize=auto;html=1;strokeColor=#457B9D;fontColor=default;fillColor=#A8DADC;labelBackgroundColor=none;" edge="1" parent="WIyWlLk6GJQsqaUBKTNV-1" source="r_Rx1pWE-mSmS_Qlkel_-96" target="r_Rx1pWE-mSmS_Qlkel_-98">
          <mxGeometry relative="1" as="geometry" />
        </mxCell>
        <mxCell id="r_Rx1pWE-mSmS_Qlkel_-102" style="edgeStyle=none;shape=flexArrow;rounded=0;orthogonalLoop=1;jettySize=auto;html=1;exitX=1;exitY=0.5;exitDx=0;exitDy=0;strokeColor=#457B9D;fontColor=default;fillColor=#A8DADC;labelBackgroundColor=none;" edge="1" parent="WIyWlLk6GJQsqaUBKTNV-1" source="r_Rx1pWE-mSmS_Qlkel_-96">
          <mxGeometry relative="1" as="geometry">
            <mxPoint x="550" y="690.2105263157896" as="targetPoint" />
          </mxGeometry>
        </mxCell>
        <mxCell id="r_Rx1pWE-mSmS_Qlkel_-96" value="Trainer erstellt einen Termin" style="ellipse;whiteSpace=wrap;html=1;strokeColor=#457B9D;fontColor=#1D3557;fillColor=#A8DADC;labelBackgroundColor=none;" vertex="1" parent="WIyWlLk6GJQsqaUBKTNV-1">
          <mxGeometry x="100" y="650" width="120" height="80" as="geometry" />
        </mxCell>
        <mxCell id="r_Rx1pWE-mSmS_Qlkel_-98" value="Datum und Zeit in Datenbank speichern" style="ellipse;whiteSpace=wrap;html=1;strokeColor=#457B9D;fontColor=#1D3557;fillColor=#A8DADC;labelBackgroundColor=none;" vertex="1" parent="WIyWlLk6GJQsqaUBKTNV-1">
          <mxGeometry x="100" y="770" width="120" height="80" as="geometry" />
        </mxCell>
        <mxCell id="r_Rx1pWE-mSmS_Qlkel_-100" style="edgeStyle=none;shape=flexArrow;rounded=0;orthogonalLoop=1;jettySize=auto;html=1;exitX=1;exitY=1;exitDx=0;exitDy=0;strokeColor=#457B9D;fontColor=default;fillColor=#A8DADC;labelBackgroundColor=none;" edge="1" parent="WIyWlLk6GJQsqaUBKTNV-1" source="r_Rx1pWE-mSmS_Qlkel_-98" target="r_Rx1pWE-mSmS_Qlkel_-98">
          <mxGeometry relative="1" as="geometry" />
        </mxCell>
        <mxCell id="r_Rx1pWE-mSmS_Qlkel_-103" value="&lt;b&gt;Termin wahrgenommen&lt;/b&gt;" style="text;html=1;align=center;verticalAlign=middle;resizable=0;points=[];autosize=1;strokeColor=none;fillColor=none;fontColor=#1D3557;labelBackgroundColor=none;" vertex="1" parent="WIyWlLk6GJQsqaUBKTNV-1">
          <mxGeometry x="280" y="658" width="160" height="30" as="geometry" />
        </mxCell>
        <mxCell id="r_Rx1pWE-mSmS_Qlkel_-104" value="&lt;p class=&quot;MsoNormal&quot;&gt;&lt;b&gt;&lt;span style=&quot;font-size:11.0pt;line-height:115%&quot;&gt;Rechnungserstellung&lt;/span&gt;&lt;/b&gt;&lt;/p&gt;" style="text;html=1;align=center;verticalAlign=middle;resizable=0;points=[];autosize=1;strokeColor=none;fillColor=none;fontColor=#1D3557;labelBackgroundColor=none;" vertex="1" parent="WIyWlLk6GJQsqaUBKTNV-1">
          <mxGeometry x="550" y="658" width="170" height="50" as="geometry" />
        </mxCell>
        <mxCell id="r_Rx1pWE-mSmS_Qlkel_-106" value="Trainer gibt Listung an" style="shape=document;whiteSpace=wrap;html=1;boundedLbl=1;strokeColor=#457B9D;fontColor=#1D3557;fillColor=#A8DADC;labelBackgroundColor=none;" vertex="1" parent="WIyWlLk6GJQsqaUBKTNV-1">
          <mxGeometry x="575" y="700" width="120" height="80" as="geometry" />
        </mxCell>
        <mxCell id="r_Rx1pWE-mSmS_Qlkel_-107" value="System berechnte Betrag" style="shape=document;whiteSpace=wrap;html=1;boundedLbl=1;strokeColor=#457B9D;fontColor=#1D3557;fillColor=#A8DADC;labelBackgroundColor=none;" vertex="1" parent="WIyWlLk6GJQsqaUBKTNV-1">
          <mxGeometry x="575" y="820" width="120" height="80" as="geometry" />
        </mxCell>
        <mxCell id="r_Rx1pWE-mSmS_Qlkel_-108" value="Rechnung wird gespeichert" style="shape=tape;whiteSpace=wrap;html=1;strokeColor=#457B9D;fontColor=#1D3557;fillColor=#A8DADC;labelBackgroundColor=none;" vertex="1" parent="WIyWlLk6GJQsqaUBKTNV-1">
          <mxGeometry x="580" y="930" width="120" height="100" as="geometry" />
        </mxCell>
        <mxCell id="r_Rx1pWE-mSmS_Qlkel_-111" style="edgeStyle=none;shape=flexArrow;rounded=0;orthogonalLoop=1;jettySize=auto;html=1;strokeColor=#457B9D;fontColor=default;fillColor=#A8DADC;labelBackgroundColor=none;" edge="1" parent="WIyWlLk6GJQsqaUBKTNV-1">
          <mxGeometry relative="1" as="geometry">
            <mxPoint x="640" y="780" as="sourcePoint" />
            <mxPoint x="640" y="820" as="targetPoint" />
          </mxGeometry>
        </mxCell>
        <mxCell id="r_Rx1pWE-mSmS_Qlkel_-112" style="edgeStyle=none;shape=flexArrow;rounded=0;orthogonalLoop=1;jettySize=auto;html=1;strokeColor=#457B9D;fontColor=default;fillColor=#A8DADC;labelBackgroundColor=none;" edge="1" parent="WIyWlLk6GJQsqaUBKTNV-1">
          <mxGeometry relative="1" as="geometry">
            <mxPoint x="630" y="910" as="sourcePoint" />
            <mxPoint x="630" y="950" as="targetPoint" />
          </mxGeometry>
        </mxCell>
      </root>
    </mxGraphModel>
  </diagram>
</mxfile>
